<?xml version="1.0" encoding="UTF-8"?>
<svg width="91px" height="60px" viewBox="0 0 91 60" version="1.1" xmlns="http://www.w3.org/2000/svg" xmlns:xlink="http://www.w3.org/1999/xlink">
    <!-- Generator: Sketch 47.1 (45422) - http://www.bohemiancoding.com/sketch -->
    <title>credit-card</title>
    <desc>Created with Sketch.</desc>
    <defs>
        <polygon id="path-1" points="0.0120529801 60 0.0120529801 0 90.81117 0 90.81117 30 90.81117 60"></polygon>
    </defs>
    <g id="new1" stroke="none" stroke-width="1" fill="none" fill-rule="evenodd">
        <g id="OTHER-PAYMENT---final---non-airtel-Copy" transform="translate(-45.000000, -1615.000000)">
            <g id="Group-2" transform="translate(1.000000, 708.000000)">
                <g id="NAR---payment-option" transform="translate(0.000000, 108.000000)">
                    <g id="Debit-cards" transform="translate(44.000000, 799.000000)">
                        <g id="credit-card">
                            <g id="Group-5">
                                <mask id="mask-2" fill="white">
                                    <use xlink:href="#path-1"></use>
                                </mask>
                                <g id="Clip-3"></g>
                                <path d="M81.7593819,60 L9.0397351,60 C4.05502428,60 0,55.9628 0,51 L0,9 C0,4.0372 4.05502428,0 9.0397351,0 L81.7593819,0 C86.7440927,0 90.799117,4.0372 90.799117,9 L90.799117,51 C90.799117,55.9628 86.7440927,60 81.7593819,60" id="Fill-4" fill="#47536A" mask="url(#mask-2)"></path>
                            </g>
                            <path d="M75.7328918,48 L15.0662252,48 C13.4007042,48 12.0529801,46.6582 12.0529801,45 C12.0529801,43.3418 13.4007042,42 15.0662252,42 L75.7328918,42 C77.3984128,42 78.7461369,43.3418 78.7461369,45 C78.7461369,46.6582 77.3984128,48 75.7328918,48" id="Fill-6" fill="#8D97A5"></path>
                            <path d="M66.6931567,36 C63.6417439,36 60.7520419,34.8838 58.5598057,32.8594 C57.9242119,32.2734 57.5740728,31.4444 57.5945629,30.586 C57.6180662,29.7246 58.0093863,28.9132 58.6714967,28.3624 C59.939872,27.3018 60.6666667,25.711 60.6666667,24 C60.6666667,22.295 59.9456976,20.6924 58.686362,19.6026 C58.0507682,19.0518 57.6741126,18.2578 57.6534216,17.4142 C57.6327307,16.5734 57.9682053,15.7618 58.5774834,15.1788 C60.7166865,13.128 63.600362,12 66.6931567,12 C73.3405762,12 78.7461369,17.3818 78.7461369,24 C78.7461369,30.6182 73.3405762,36 66.6931567,36" id="Fill-7" fill="#BA2B42"></path>
                            <path d="M27.1192053,36 L15.0662252,36 C13.4007042,36 12.0529801,34.6582 12.0529801,33 C12.0529801,31.3418 13.4007042,30 15.0662252,30 L27.1192053,30 C28.7847263,30 30.1324503,31.3418 30.1324503,33 C30.1324503,34.6582 28.7847263,36 27.1192053,36" id="Fill-8" fill="#8D97A5"></path>
                            <path d="M54.6401766,36 C47.9927572,36 42.5871965,30.6182 42.5871965,24 C42.5871965,17.3818 47.9927572,12 54.6401766,12 C57.647596,12 60.5135938,13.1132 62.7118565,15.1376 C65.2188764,17.3086 66.6931567,20.5606 66.6931567,24 C66.6931567,27.4892 65.1807086,30.7558 62.5441192,32.956 C60.5519625,34.872 57.6915894,36 54.6401766,36" id="Fill-9" fill="#F9CA40"></path>
                        </g>
                    </g>
                </g>
            </g>
        </g>
    </g>
</svg>