<?xml version="1.0" encoding="UTF-8"?>
<svg width="137px" height="137px" viewBox="0 0 137 137" version="1.1" xmlns="http://www.w3.org/2000/svg" xmlns:xlink="http://www.w3.org/1999/xlink">
    <!-- Generator: Sketch 51 (57462) - http://www.bohemiancoding.com/sketch -->
    <title>premium copy</title>
    <desc>Created with Sketch.</desc>
    <defs></defs>
    <g id="Symbols" stroke="none" stroke-width="1" fill="none" fill-rule="evenodd">
        <g id="user-free">
            <g id="premium-copy">
                <path d="M132.804144,76.1725684 C130.658422,78.6101465 129.009225,81.4377051 127.951604,84.5066992 C127.305481,87.7858984 127.305481,91.1603906 127.951604,94.4395898 C128.648663,97.1382227 128.567246,99.9761914 127.716979,102.631182 C125.81631,104.732432 123.354144,106.249912 120.616845,106.996641 C117.481684,108.055674 114.587968,109.719297 112.091711,111.888213 C109.918717,114.379844 108.252674,117.268662 107.191444,120.398916 C106.443449,123.131582 104.923396,125.596387 102.814973,127.493838 C100.155882,128.339063 97.309492,128.420742 94.6062834,127.728066 C91.3215241,127.079834 87.9449198,127.079834 84.6597594,127.728066 C81.5855615,128.783896 78.7495989,130.430303 76.3082888,132.572393 C74.2512032,134.605977 71.6462567,135.997734 68.8102941,136.578301 C65.9743316,135.997734 63.3661765,134.602373 61.3086898,132.569189 C58.8669786,130.4271 56.0346257,128.780693 52.9604278,127.724863 C51.6036096,127.375322 50.209492,127.20876 48.8085561,127.225977 C46.8737968,127.27002 44.942246,127.436582 43.0279412,127.728467 C40.321123,128.427949 37.4683155,128.34627 34.805615,127.490635 C32.7008021,125.593184 31.1807487,123.135186 30.432754,120.40252 C29.3719251,117.272666 27.7054813,114.383848 25.5324866,111.891816 C23.036631,109.7225 20.1429144,108.059277 17.0073529,106.999844 C14.2700535,106.253115 11.8010695,104.735635 9.90040107,102.630781 C9.05013369,99.9761914 8.96871658,97.1346191 9.6657754,94.4359863 C10.3118984,91.1567871 10.3118984,87.7858984 9.6657754,84.5062988 C8.60815508,81.4373047 6.95895722,78.6061426 4.81323529,76.1689648 C2.77620321,74.1153613 1.38208556,71.5148242 0.800534759,68.6836621 C1.38208556,65.8525 2.77941176,63.2487598 4.81644385,61.1947559 C6.96216578,58.7571777 8.61136364,55.9296191 9.66898396,52.860625 C10.315107,49.5814258 10.315107,46.2069336 9.66898396,42.9277344 C8.97192513,40.2291016 9.05334225,37.3911328 9.90360963,34.7361426 C11.8042781,32.6348926 14.2664439,31.1174121 17.0037433,30.3706836 C20.1389037,29.3116504 23.0326203,27.6480273 25.528877,25.4787109 C27.7018717,22.9870801 29.3679144,20.0982617 30.4291444,16.9680078 C31.177139,14.2353418 32.6971925,11.7705371 34.805615,9.87308594 C37.4647059,9.02425781 40.3110963,8.94297852 43.0143048,9.63885742 C46.2990642,10.2870898 49.6756684,10.2870898 52.9608289,9.63885742 C56.0350267,8.58302734 58.8709893,6.93662109 61.3122995,4.79453125 C63.3697861,2.76094727 65.9743316,1.36918945 68.8102941,0.788623047 C71.6462567,1.36918945 74.2544118,2.76415039 76.3118984,4.79773438 C78.7536096,6.93982422 81.5859626,8.58623047 84.6601604,9.64206055 C87.9449198,10.2938965 91.3251337,10.2938965 94.609893,9.64206055 C97.3131016,8.94938477 100.155882,9.03106445 102.815374,9.87628906 C104.920187,11.7737402 106.440241,14.2317383 107.188235,16.9644043 C108.249064,20.0942578 109.915508,22.9830762 112.088102,25.4751074 C114.583957,27.6444238 117.477674,29.3076465 120.613235,30.3670801 C123.350535,31.1138086 125.819519,32.6312891 127.720187,34.7361426 C128.570455,37.3907324 128.651872,40.2323047 127.954813,42.9309375 C127.30869,46.2101367 127.30869,49.5810254 127.954813,52.860625 C129.012433,55.9296191 130.661631,58.7607812 132.807353,61.197959 C134.844385,63.2515625 136.238503,65.8520996 136.820053,68.6832617 C136.238503,71.5148242 134.841176,74.1185645 132.804144,76.1725684 Z" id="Fill-7" fill="#363638"></path>
                <text id="FREE" font-family="Lato-Black, Lato" font-size="30.6000009" font-weight="700" fill="#F8C747">
                    <tspan x="33.014399" y="79">FREE</tspan>
                </text>
                <path d="M68,21 C42.0411408,21 21,42.0414873 21,68 C21,93.9585127 42.0411408,115 68,115 C93.9588592,115 115,93.9585127 115,68 C114.970551,42.0560388 93.9439612,21.0294495 68,21 Z" id="Path" stroke="#E88139" stroke-width="6"></path>
            </g>
        </g>
    </g>
</svg>